<svg width="114" height="34" viewBox="0 0 114 34" fill="none" xmlns="http://www.w3.org/2000/svg">
<path fill-rule="evenodd" clip-rule="evenodd" d="M15.0146 32.046L15.0152 32.0447C15.0123 32.0433 15.0097 32.0412 15.0068 32.0396C14.998 32.0337 14.9882 32.0287 14.979 32.0229C14.1718 31.5541 12.8321 30.1741 12.7466 30.1057C12.7459 30.1045 12.745 30.1034 12.7441 30.1022L12.7434 30.1031C12.6803 30.0528 12.6129 30.0089 12.5354 29.9771C12.0892 29.7961 11.5826 30.0222 11.4067 30.4813C11.3095 30.7346 11.3361 31.0053 11.4519 31.2283L11.4629 31.272C12.5418 32.7706 14.2546 33.516 14.2546 33.516C14.6726 33.6856 15.1471 33.4737 15.3122 33.0431C15.4539 32.6738 15.3202 32.2625 15.0146 32.046Z" fill="#E52127" style="fill:#E52127;fill:color(display-p3 0.8986 0.1298 0.1516);fill-opacity:1;"/>
<path fill-rule="evenodd" clip-rule="evenodd" d="M13.904 12.45C13.7648 12.45 13.5139 12.547 13.5119 12.547C9.92238 13.6553 7.49896 17.0656 7.53656 21.2017C7.60926 23.7889 8.68705 26.9352 9.40114 28.251C9.43416 28.3206 9.49195 28.423 9.52749 28.4851C9.55042 28.5377 9.57794 28.5876 9.60982 28.6345C9.76782 28.8653 10.0281 29.0174 10.323 29.0174C10.475 29.0174 10.6161 28.9737 10.7408 28.9028C11.0107 28.7505 11.196 28.4587 11.196 28.1194C11.196 27.9785 11.1623 27.8467 11.1054 27.7282C11.0875 27.6973 11.071 27.666 11.0536 27.6349C9.84051 25.5021 9.22525 23.148 9.30345 20.5401C9.39449 17.5049 11.446 15.0484 14.0705 14.2225C14.1228 14.2122 14.173 14.1959 14.2214 14.1762C14.2991 14.1536 14.5291 14.001 14.5514 13.9372C14.6883 13.7791 14.7743 13.5729 14.7743 13.345C14.7743 12.8515 14.384 12.45 13.904 12.45Z" fill="#00AB75" style="fill:#00AB75;fill:color(display-p3 0.0000 0.6712 0.4569);fill-opacity:1;"/>
<path fill-rule="evenodd" clip-rule="evenodd" d="M8.2777 4.23164C13.4325 1.3642 18.5903 1.59276 23.7449 4.23278C24.3177 4.52609 24.9055 4.72972 25.2442 3.97013C25.5409 3.30481 25.0983 2.9424 24.5587 2.65458C21.8244 1.19627 18.9285 0.417924 15.8413 0.42616C12.8668 0.400536 10.0907 1.16561 7.49435 2.64429C6.9456 2.95682 6.42826 3.33363 6.84011 4.06188C7.2045 4.70592 7.74821 4.52609 8.2777 4.23164Z" fill="#1D1C1A" style="fill:#1D1C1A;fill:color(display-p3 0.1118 0.1107 0.1026);fill-opacity:1;"/>
<path fill-rule="evenodd" clip-rule="evenodd" d="M6.60659 28.1439C6.12663 28.1439 5.73633 28.5454 5.73633 29.0391C5.73633 29.5324 6.12663 29.9339 6.60659 29.9339C7.08677 29.9339 7.47684 29.5324 7.47684 29.0391C7.47684 28.5454 7.08677 28.1439 6.60659 28.1439Z" fill="#1D1C1A" style="fill:#1D1C1A;fill:color(display-p3 0.1118 0.1107 0.1026);fill-opacity:1;"/>
<path fill-rule="evenodd" clip-rule="evenodd" d="M17.9356 13.0968C17.9356 12.6033 17.545 12.2018 17.0651 12.2018C16.5851 12.2018 16.1948 12.6033 16.1948 13.0968C16.1948 13.5903 16.5851 13.9916 17.0651 13.9916C17.545 13.9916 17.9356 13.5903 17.9356 13.0968Z" fill="#1D1C1A" style="fill:#1D1C1A;fill:color(display-p3 0.1118 0.1107 0.1026);fill-opacity:1;"/>
<path fill-rule="evenodd" clip-rule="evenodd" d="M27.288 26.102C26.8078 26.102 26.4175 26.5035 26.4175 26.997C26.4175 27.4903 26.8078 27.8918 27.288 27.8918C27.7679 27.8918 28.1582 27.4903 28.1582 26.997C28.1582 26.5035 27.7679 26.102 27.288 26.102Z" fill="#1D1C1A" style="fill:#1D1C1A;fill:color(display-p3 0.1118 0.1107 0.1026);fill-opacity:1;"/>
<path fill-rule="evenodd" clip-rule="evenodd" d="M20.7394 24.2593C21.2194 24.2593 21.6097 23.8578 21.6097 23.3643C21.6097 22.871 21.2194 22.4695 20.7394 22.4695C20.2592 22.4695 19.8691 22.871 19.8691 23.3643C19.8691 23.8578 20.2592 24.2593 20.7394 24.2593Z" fill="#1D1C1A" style="fill:#1D1C1A;fill:color(display-p3 0.1118 0.1107 0.1026);fill-opacity:1;"/>
<path fill-rule="evenodd" clip-rule="evenodd" d="M31.2269 16.5833C30.7467 16.5833 30.3564 16.9848 30.3564 17.4781C30.3564 17.9716 30.7467 18.3731 31.2269 18.3731C31.7067 18.3731 32.0972 17.9716 32.0972 17.4781C32.0972 16.9848 31.7067 16.5833 31.2269 16.5833Z" fill="#1D1C1A" style="fill:#1D1C1A;fill:color(display-p3 0.1118 0.1107 0.1026);fill-opacity:1;"/>
<path fill-rule="evenodd" clip-rule="evenodd" d="M30.8064 14.5467C30.8064 14.0532 30.4161 13.6516 29.9362 13.6516C29.4562 13.6516 29.0659 14.0532 29.0659 14.5467C29.0659 15.0399 29.4562 15.4415 29.9362 15.4415C30.4161 15.4415 30.8064 15.0399 30.8064 14.5467Z" fill="#1D1C1A" style="fill:#1D1C1A;fill:color(display-p3 0.1118 0.1107 0.1026);fill-opacity:1;"/>
<path fill-rule="evenodd" clip-rule="evenodd" d="M4.84975 6.79996C5.32971 6.79996 5.72001 6.39843 5.72001 5.90493C5.72001 5.41166 5.32971 5.01013 4.84975 5.01013C4.36979 5.01013 3.97949 5.41166 3.97949 5.90493C3.97949 6.39843 4.36979 6.79996 4.84975 6.79996Z" fill="#1D1C1A" style="fill:#1D1C1A;fill:color(display-p3 0.1118 0.1107 0.1026);fill-opacity:1;"/>
<path fill-rule="evenodd" clip-rule="evenodd" d="M1.62838 14.6658C1.30344 14.6658 1.02275 14.852 0.873468 15.1243L0.870487 15.1227C0.867047 15.1316 0.863837 15.1403 0.860167 15.149C0.829898 15.2091 0.805131 15.2721 0.788621 15.3391C0.0467806 17.3644 0 19.4665 0 19.4665C0 19.9602 0.390527 20.3615 0.870487 20.3615C1.28165 20.3615 1.62517 20.0659 1.71575 19.671L1.71712 19.6703C1.71712 19.6687 1.71712 19.6671 1.71735 19.6655C1.73134 19.6012 1.74074 19.5351 1.74074 19.4665C1.74074 19.4354 1.73478 19.4056 1.73157 19.375C1.84761 17.3648 2.42801 15.9131 2.42801 15.9131C2.47341 15.8049 2.49887 15.686 2.49887 15.5608C2.49887 15.0673 2.10857 14.6658 1.62838 14.6658Z" fill="#1D1C1A" style="fill:#1D1C1A;fill:color(display-p3 0.1118 0.1107 0.1026);fill-opacity:1;"/>
<path fill-rule="evenodd" clip-rule="evenodd" d="M26.4442 20.1617C26.4442 22.5763 25.5088 23.7795 23.8495 23.7431C23.847 23.7431 23.8444 23.7422 23.8417 23.7422C23.8396 23.7422 23.8373 23.7429 23.835 23.7429C23.8027 23.7422 23.7706 23.7441 23.7385 23.7422C23.7346 23.7463 23.7321 23.7505 23.7282 23.7544C23.3023 23.8122 22.9714 24.184 22.9714 24.6373C22.9714 25.0493 23.2446 25.3927 23.6131 25.4966C23.6238 25.5016 23.636 25.506 23.6564 25.5119C23.6578 25.5119 23.6603 25.5124 23.6617 25.5128C23.6688 25.5142 23.6764 25.5144 23.6832 25.5156C23.7014 25.5183 23.7234 25.5206 23.7502 25.5229C23.7809 25.5259 23.8105 25.5323 23.8417 25.5323C23.8529 25.5323 23.8633 25.5295 23.8745 25.5291C24.0501 25.5341 24.2597 25.5323 24.2597 25.5323C26.9849 25.3101 27.9641 22.9751 27.9641 19.6025C27.9641 11.1931 19.2542 5.99149 11.6572 9.11014C4.5057 12.0455 2.66039 19.0694 4.60362 25.9375C4.6144 25.9977 4.63068 26.0558 4.65246 26.1109C4.7818 26.4381 5.09367 26.6696 5.45783 26.6696C5.51011 26.6696 5.56079 26.6632 5.61055 26.6538C5.71604 26.6348 5.81395 26.5946 5.9027 26.5401C6.15632 26.3836 6.32808 26.1008 6.32808 25.7748C6.32808 25.7165 6.32189 25.6595 6.31134 25.6037C6.30836 25.5888 6.30355 25.5751 6.29988 25.56C6.12812 24.9118 5.96324 24.2609 5.83803 23.6031C4.44769 16.3134 9.10649 10.0608 15.9429 10.0608C22.222 10.0608 26.4442 14.0939 26.4442 20.1617Z" fill="#1D1C1A" style="fill:#1D1C1A;fill:color(display-p3 0.1118 0.1107 0.1026);fill-opacity:1;"/>
<path fill-rule="evenodd" clip-rule="evenodd" d="M4.81474 11.8975C6.98385 9.01288 9.0798 7.5095 12.0589 6.69775C12.0595 6.69752 12.0602 6.69752 12.0612 6.69752C12.0811 6.69409 12.0997 6.68608 12.1194 6.68082C12.2006 6.65931 12.2781 6.62888 12.3487 6.58541C12.5982 6.43143 12.7674 6.15345 12.7674 5.83246C12.7674 5.77503 12.761 5.71898 12.7505 5.6643C12.748 5.64943 12.7429 5.63593 12.7397 5.62129C12.6468 5.23806 12.312 4.95184 11.9107 4.95184C11.8584 4.95184 11.8075 4.95848 11.7575 4.96786C11.6922 4.98731 11.6289 5.00858 11.5647 5.02872C10.1679 5.46777 9.00986 6.06674 7.822 6.80002C6.18537 7.81036 4.88193 8.95042 3.50695 10.77C3.31042 11.0299 2.9598 11.3713 2.72819 11.738C2.61192 11.8725 2.53579 12.0425 2.51538 12.2308C2.46768 12.4759 2.52226 12.7209 2.75112 12.9508C2.75937 12.96 2.76832 12.9682 2.7768 12.9767C2.80776 13.0057 2.84078 13.0348 2.87724 13.0634C2.88137 13.0664 2.88527 13.0689 2.88939 13.0719L2.88962 13.0723C3.81492 13.7759 4.4022 12.4461 4.81474 11.8975Z" fill="#1D1C1A" style="fill:#1D1C1A;fill:color(display-p3 0.1118 0.1107 0.1026);fill-opacity:1;"/>
<path fill-rule="evenodd" clip-rule="evenodd" d="M28.6573 10.8918C25.4898 6.63174 21.2568 4.57079 16.1843 4.46188C15.9594 4.46532 15.3907 4.46188 15.3248 4.46188C14.8451 4.46188 14.4546 4.86341 14.4546 5.35714C14.4546 5.85042 14.8451 6.25194 15.3248 6.25194C19.7887 6.00714 24.2856 7.90839 27.3255 12.0152C27.3257 12.0154 27.3259 12.0156 27.3259 12.0159C27.336 12.0312 27.3479 12.0452 27.3587 12.06C27.5169 12.2772 27.7669 12.4199 28.0506 12.4199C28.5291 12.4199 28.9181 12.0198 28.9181 11.5279C28.9181 11.3737 28.8766 11.2307 28.8094 11.1044C28.7679 11.0261 28.7186 10.9536 28.6573 10.8918Z" fill="#1D1C1A" style="fill:#1D1C1A;fill:color(display-p3 0.1118 0.1107 0.1026);fill-opacity:1;"/>
<path fill-rule="evenodd" clip-rule="evenodd" d="M23.5641 21.6124C24.4536 21.5824 24.4172 20.829 24.3858 20.1641C24.3725 19.8823 24.3348 19.5999 24.2855 19.3219C23.8755 17.0054 22.6069 14.9099 20.9093 13.6113C20.8978 13.6026 20.8868 13.5939 20.8754 13.5855C20.7288 13.4727 20.5484 13.4043 20.3509 13.4043C19.8622 13.4043 19.4648 13.8131 19.4648 14.3155C19.4648 14.3723 19.4713 14.4276 19.4811 14.4814C19.4921 14.5425 19.5084 14.6013 19.5307 14.6578C19.5745 14.7679 19.6398 14.866 19.7189 14.9497C19.7708 14.9921 19.8221 15.036 19.873 15.0806C21.2659 16.2934 22.4428 18.3024 22.6507 20.3266C22.7175 20.9756 22.7808 21.6387 23.5641 21.6124Z" fill="#1D1C1A" style="fill:#1D1C1A;fill:color(display-p3 0.1118 0.1107 0.1026);fill-opacity:1;"/>
<path fill-rule="evenodd" clip-rule="evenodd" d="M20.3788 30.7696C19.8981 30.5911 19.3987 30.4511 18.9426 30.2205C15.2659 28.3593 13.2876 25.3132 13.0982 21.1048C13.0136 19.223 14.1966 17.9026 15.8507 17.8354L15.8745 17.8269C15.9752 17.8097 16.0697 17.775 16.1561 17.726C16.4221 17.5755 16.6047 17.2876 16.6047 16.9538C16.6047 16.6223 16.4247 16.3363 16.1614 16.1849C16.0456 16.1181 15.9144 16.0771 15.7736 16.0723C15.7635 16.0718 15.7544 16.0691 15.7443 16.0691C15.7246 16.0691 15.7062 16.0739 15.687 16.0748C13.4736 16.2217 11.6909 17.8939 11.4003 20.1644C10.7456 25.2793 14.9628 31.4059 19.8396 32.4327C20.3957 32.5496 20.8984 32.5185 21.0692 31.86C21.2192 31.2821 20.8782 30.9554 20.3788 30.7696Z" fill="#1D1C1A" style="fill:#1D1C1A;fill:color(display-p3 0.1118 0.1107 0.1026);fill-opacity:1;"/>
<path fill-rule="evenodd" clip-rule="evenodd" d="M18.0314 18.5168C18.0424 18.5479 18.055 18.5776 18.069 18.6069C18.1593 18.8275 18.3593 19.347 18.5939 20.1508C18.607 20.2332 18.6287 20.3121 18.6613 20.3858C18.8051 20.7134 19.1241 20.9426 19.4953 20.9426C19.6552 20.9426 19.8033 20.8966 19.934 20.8225C20.2172 20.6621 20.4121 20.3556 20.4121 20C20.4121 19.9614 20.4087 19.9236 20.4043 19.8863C20.3961 19.8165 20.3791 19.7497 20.3564 19.6852C20.1952 19.0315 19.945 18.266 19.5864 17.7478C19.5598 17.703 19.529 17.6618 19.4953 17.6227C19.4896 17.6153 19.4846 17.6066 19.4788 17.5995C19.4774 17.5977 19.4754 17.5973 19.474 17.5957C19.3153 17.4252 19.0936 17.3184 18.8468 17.3184C18.3666 17.3184 17.9766 17.7199 17.9766 18.2132C17.9766 18.3072 17.9944 18.396 18.0206 18.4811C18.0201 18.4818 18.0174 18.4845 18.0174 18.4845C18.0174 18.4845 18.0224 18.4959 18.0314 18.5168Z" fill="#1D1C1A" style="fill:#1D1C1A;fill:color(display-p3 0.1118 0.1107 0.1026);fill-opacity:1;"/>
<path fill-rule="evenodd" clip-rule="evenodd" d="M24.5026 27.5395C24.3843 27.4713 24.251 27.4299 24.1075 27.4249H24.1073C24.0584 27.4301 24.0096 27.4333 23.9607 27.4379C20.2309 27.7717 17.2009 25.1962 16.8778 21.3621C16.8219 20.6968 16.8423 19.9196 15.9553 19.9876C15.1371 20.0505 15.1302 20.8968 15.1722 21.5671C15.4446 25.8968 18.9841 29.2438 23.2748 29.2911C23.5535 29.2911 23.8362 29.2627 24.1185 29.2218C24.1742 29.2138 24.2299 29.2058 24.2857 29.1964C24.36 29.1765 24.4311 29.1474 24.4973 29.1099C24.7684 28.9564 24.9546 28.6633 24.9546 28.3229C24.9546 27.9849 24.7709 27.6937 24.5026 27.5395Z" fill="#1D1C1A" style="fill:#1D1C1A;fill:color(display-p3 0.1118 0.1107 0.1026);fill-opacity:1;"/>
<path fill-rule="evenodd" clip-rule="evenodd" d="M84.0731 1.07845C84.0731 1.43898 83.7757 1.73136 83.409 1.73136C83.0423 1.73136 82.7449 1.43898 82.7449 1.07845C82.7449 0.717921 83.0423 0.425537 83.409 0.425537C83.7757 0.425537 84.0731 0.717921 84.0731 1.07845ZM101.152 7.81203C101.152 8.94281 101.727 9.73985 102.73 9.73985C103.777 9.73985 104.294 9.05841 104.294 7.68118C104.294 6.43436 103.748 5.76729 102.789 5.76729C101.727 5.76729 101.152 6.52144 101.152 7.81203ZM95.2966 9.75444L97.0075 9.73985V6.68059C97.0075 6.26063 96.8746 5.89815 96.6091 5.60794C96.3141 5.27441 95.9014 5.10024 95.3555 5.10024C94.7952 5.10024 94.3379 5.36127 93.9843 5.86897C93.6742 6.31833 93.5123 6.82581 93.5123 7.37683C93.5123 7.95681 93.6448 8.47844 93.9249 8.92801C94.2642 9.47904 94.7217 9.75444 95.2966 9.75444ZM109.737 9.14571C109.885 8.88446 109.959 8.42074 109.959 7.75367V1.37412H110.991V8.20303C110.991 9.89942 110.268 10.7548 108.823 10.7548H108.405V10.755H99.9863H98.2174H97.9514C97.6564 12.2481 96.6537 13.0314 94.9574 13.1326V12.1612H95.0902C96.0345 12.1612 96.6389 11.6829 96.8895 10.755H95.282C94.4565 10.755 93.7777 10.4507 93.2469 9.82692C92.7156 9.2034 92.4506 8.42074 92.4506 7.47827C92.4506 6.5358 92.7305 5.75292 93.2907 5.11481C93.8665 4.47692 94.5738 4.15776 95.4149 4.15776C97.0514 4.15776 98.0692 5.14398 98.0692 7.05787V9.75443H98.2174H99.9863H100.739C100.297 9.23258 100.076 8.56551 100.076 7.75389C100.076 6.14436 101.123 4.92649 102.745 4.92649C104.323 4.92649 105.356 6.04269 105.356 7.7393C105.356 8.55114 105.119 9.21821 104.662 9.73984H106.83C106.919 9.36342 106.963 8.97176 106.963 8.56551C106.963 6.14436 105.385 4.34673 103.498 3.81008V2.76638C104.648 2.96906 106.137 3.95507 106.919 5.10022C107.612 6.10082 107.966 7.33306 107.966 8.76842C107.966 9.10195 107.951 9.42089 107.922 9.73984H108.405V9.75443H108.484C109.118 9.75443 109.531 9.55174 109.737 9.14571ZM83.6736 8.9573C84.9126 8.9573 85.5467 8.01483 85.5761 6.11531V3.54895H83.7031C82.538 3.54895 81.7419 4.72328 81.7419 6.24616C81.7419 7.72506 82.5236 8.9573 83.6736 8.9573ZM89.0866 10.7551H88.5881H88.4079C86.948 10.7551 86.0188 10.0445 85.591 8.63835C85.1483 9.37747 84.3967 9.75455 83.3344 9.75455C81.8305 9.75455 80.7098 8.2321 80.7098 6.30363C80.7098 4.24496 81.8305 2.79523 83.5118 2.79523H86.6382V7.44922C86.6382 8.89895 87.3312 9.75455 88.5261 9.75455H88.5881V9.75433H88.7482C89.3822 9.75433 89.7955 9.55164 90.0016 9.14561C90.1491 8.88479 90.2226 8.42085 90.2226 7.75379V4.17225H91.2553V8.20314C91.2553 9.89954 90.5324 10.7551 89.0873 10.7551H89.0866ZM112.968 10.7551H114V1.37422H112.968V10.7551ZM85.4925 1.73136C85.8592 1.73136 86.1566 1.43898 86.1566 1.07845C86.1566 0.717921 85.8592 0.425537 85.4925 0.425537C85.126 0.425537 84.8281 0.717921 84.8281 1.07845C84.8281 1.43898 85.126 1.73136 85.4925 1.73136ZM88.0523 12.3202C88.0523 11.9599 88.3497 11.6676 88.7164 11.6676C89.0832 11.6676 89.3806 11.9599 89.3806 12.3202C89.3806 12.6808 89.0832 12.9734 88.7164 12.9734C88.3497 12.9734 88.0523 12.6808 88.0523 12.3202ZM90.8003 11.6676C90.4334 11.6676 90.136 11.9599 90.136 12.3202C90.136 12.6808 90.4334 12.9734 90.8003 12.9734C91.1668 12.9734 91.4644 12.6808 91.4644 12.3202C91.4644 11.9599 91.1668 11.6676 90.8003 11.6676ZM61.6233 7.53612C61.6233 8.98607 62.3461 9.91417 63.5557 9.91417C64.8387 9.91417 65.4878 9.05835 65.4878 7.36217C65.4878 5.91222 64.8241 5.0281 63.6146 5.0281C62.302 5.0281 61.6233 5.99931 61.6233 7.53612ZM53.9974 10.3923C54.3364 10.8712 54.8232 11.1031 55.4574 11.1031C56.6964 11.1031 57.3158 10.2767 57.3158 8.62359C57.3158 7.97111 57.1832 7.44926 56.9176 7.05782C56.608 6.57908 56.1508 6.34721 55.5163 6.34721C54.8526 6.34721 54.3364 6.60803 53.9974 7.11573C53.717 7.53591 53.5844 8.08715 53.5844 8.79754C53.5844 9.45002 53.717 9.98645 53.9974 10.3923ZM43.362 8.95712C44.6008 8.95712 45.2353 8.01465 45.2645 6.11535V3.54899H43.3915C42.2266 3.54899 41.4299 4.72331 41.4299 6.24598C41.4299 7.72488 42.2118 8.95712 43.362 8.95712ZM60.4585 7.47844C60.4585 5.59351 61.653 4.18688 63.5701 4.18688C65.4434 4.18688 66.6235 5.49205 66.6235 7.46385C66.6235 9.34878 65.4285 10.7548 63.5557 10.7548H60.1919V10.755H57.9355C57.3748 11.5958 56.5488 12.0164 55.4575 12.0164C54.3221 12.0164 53.4664 11.5958 52.9212 10.755H52.4929H50.7377H48.775H48.0965H48.0497V10.7534C46.6172 10.7382 45.7028 10.0289 45.2796 8.6384C44.8369 9.37752 44.0849 9.75459 43.023 9.75459C41.5185 9.75459 40.3979 8.23193 40.3979 6.30368C40.3979 4.24501 41.5185 2.79528 43.2 2.79528H46.3268V7.44927C46.3268 8.89899 47.0198 9.75459 48.2147 9.75459H48.3485C48.9825 9.75459 49.3957 9.55147 49.6021 9.16003C49.7496 8.88463 49.8236 8.4209 49.8236 7.75384V4.1723H50.8557V8.20319C50.8557 8.8265 50.7674 9.34857 50.5756 9.73979H50.7377H52.4785C52.4046 9.43543 52.36 9.10212 52.36 8.73963C52.36 7.7828 52.6404 6.99969 53.1865 6.37617C53.7468 5.75287 54.5134 5.44829 55.4721 5.44829C56.4308 5.44829 57.1979 5.76724 57.7435 6.39054C58.2599 6.98511 58.5252 7.76843 58.5252 8.72526C58.5252 9.08731 58.4812 9.42085 58.3926 9.73979H60.1919V9.74001H61.1959C60.7092 9.16003 60.4585 8.40632 60.4585 7.47844ZM73.1425 7.75367C73.1425 8.42074 73.0687 8.88446 72.921 9.14571C72.745 9.49165 72.4174 9.6889 71.932 9.73984H69.7204V4.17235H68.688V9.71088C68.688 11.4221 67.9948 12.1612 66.6236 12.1612V13.1326C68.3339 13.0314 69.3368 12.2483 69.617 10.755H72.1537C73.4997 10.6914 74.1744 9.8402 74.1744 8.20303V1.37412H73.1425V7.75367ZM77.1832 10.7549H76.1513V1.37422H77.1832V10.7549ZM43.1669 1.73136C43.5336 1.73136 43.831 1.43898 43.831 1.07845C43.831 0.717921 43.5336 0.425537 43.1669 0.425537C42.8002 0.425537 42.5025 0.717921 42.5025 1.07845C42.5025 1.43898 42.8002 1.73136 43.1669 1.73136ZM45.9144 1.07845C45.9144 1.43898 45.6173 1.73136 45.2503 1.73136C44.8838 1.73136 44.5862 1.43898 44.5862 1.07845C44.5862 0.717921 44.8838 0.425537 45.2503 0.425537C45.6173 0.425537 45.9144 0.717921 45.9144 1.07845ZM62.5216 3.20217C62.8883 3.20217 63.1857 2.90978 63.1857 2.54925C63.1857 2.18873 62.8883 1.89634 62.5216 1.89634C62.1551 1.89634 61.8574 2.18873 61.8574 2.54925C61.8574 2.90978 62.1551 3.20217 62.5216 3.20217ZM65.2705 2.54925C65.2705 2.90978 64.9733 3.20217 64.6064 3.20217C64.2397 3.20217 63.9423 2.90978 63.9423 2.54925C63.9423 2.18873 64.2397 1.89634 64.6064 1.89634C64.9733 1.89634 65.2705 2.18873 65.2705 2.54925ZM48.239 11.6676C47.8723 11.6676 47.5747 11.9599 47.5747 12.3202C47.5747 12.6808 47.8723 12.9734 48.239 12.9734C48.6057 12.9734 48.9031 12.6808 48.9031 12.3202C48.9031 11.9599 48.6057 11.6676 48.239 11.6676ZM49.6583 12.3202C49.6583 11.9599 49.9559 11.6676 50.3227 11.6676C50.6894 11.6676 50.9868 11.9599 50.9868 12.3202C50.9868 12.6808 50.6894 12.9734 50.3227 12.9734C49.9559 12.9734 49.6583 12.6808 49.6583 12.3202Z" fill="#1D1C1A" style="fill:#1D1C1A;fill:color(display-p3 0.1118 0.1107 0.1026);fill-opacity:1;"/>
<path fill-rule="evenodd" clip-rule="evenodd" d="M53.6377 28.9105L55.5947 23.5602L57.5077 28.9105H53.6377ZM55.1281 21.9724L50.4546 33.4554H51.7219C52.0262 32.6866 52.4839 31.5973 53.1199 30.1278L53.1961 29.9524H57.9721L59.439 33.4554H60.6937L56.0204 21.9724H55.1281ZM47.6448 30.1711C47.6448 31.6386 46.0896 32.4303 44.6262 32.4303C42.6333 32.4303 41.5904 31.3023 41.5904 30.1882V22.1423H40.3979V30.1711C40.3979 32.3818 42.5763 33.5745 44.6262 33.5745C47.3615 33.5745 48.8372 31.8295 48.8372 30.1882V22.1423H47.6448V30.1711ZM68.9692 28.3712H63.4338V32.3115H69.109V33.4554H62.2412V22.1423H69.0915V23.2865H63.4338V27.2098H68.9692V28.3712ZM80.0193 28.3661H77.0357V23.2864H80.0193C81.7453 23.2864 82.5312 24.6075 82.5312 25.8349C82.5312 27.574 81.2289 28.3661 80.0193 28.3661ZM80.0191 22.1252H75.8429V33.4556H77.0356V29.4937H80.0191C82.5404 29.4937 83.6885 27.5883 83.6885 25.8179C83.6885 24.0393 82.5404 22.1252 80.0191 22.1252ZM88.9272 23.5602L86.9702 28.9105H90.8402L88.9272 23.5602ZM83.7871 33.4554L88.4606 21.9724H89.3529L94.0262 33.4554H92.7715L91.3046 29.9524H86.529L86.4524 30.1278C85.8164 31.5973 85.3587 32.6866 85.0546 33.4554H83.7871ZM99.5779 27.1915C98.3405 27.0789 96.6464 26.9242 96.5398 25.4297C96.4966 24.9258 96.6203 24.4756 96.898 24.1285C97.3869 23.5163 98.3002 23.1379 99.3418 23.1166L99.4038 23.1161C100.384 23.1161 101.662 23.5111 102.064 24.6212L103.241 24.575C102.793 22.6804 100.918 22.0063 99.4355 22.0063C98.0134 22.0063 96.684 22.5695 95.9666 23.476C95.5187 24.0433 95.3087 24.7327 95.3581 25.4729L95.3636 25.5242C95.5373 27.7696 97.5535 28.1542 99.4302 28.3385C100.625 28.4547 102.113 28.5997 102.377 29.7337C102.416 29.9067 102.436 30.0651 102.436 30.2051C102.436 31.598 100.893 32.4302 99.4005 32.4302C98.1341 32.4302 96.6949 31.7887 96.4862 30.5981H96.4814L96.4738 30.5651L95.2752 30.5882L95.2768 30.6154C95.4292 32.0406 96.9202 33.5578 99.3832 33.5578C101.47 33.5578 103.629 32.31 103.629 30.2221C103.629 30.0135 103.599 29.749 103.547 29.4964C103.137 27.8423 101.311 27.4027 99.5779 27.1915ZM109.945 27.1908C111.678 27.4018 113.505 27.8412 113.92 29.5018C113.971 29.7525 114 30.0152 114 30.2221C114 32.31 111.842 33.5578 109.755 33.5578C107.292 33.5578 105.801 32.0406 105.648 30.6154L105.647 30.5882L106.846 30.5651L106.853 30.5981H106.858C107.067 31.7887 108.506 32.4302 109.772 32.4302C111.265 32.4302 112.808 31.598 112.808 30.2051C112.808 30.0651 112.788 29.9067 112.748 29.7337C112.485 28.5997 110.997 28.4547 109.802 28.3385C107.925 28.1542 105.909 27.7696 105.735 25.5244L105.73 25.4729C105.68 24.7327 105.89 24.0433 106.338 23.476C107.056 22.5695 108.385 22.0063 109.807 22.0063C111.29 22.0063 113.165 22.6804 113.612 24.575L112.436 24.6212C112.033 23.5111 110.756 23.1161 109.775 23.1161L109.714 23.1166C108.672 23.1379 107.759 23.5163 107.27 24.1285C106.992 24.4756 106.868 24.9258 106.911 25.4297C107.018 26.9249 108.71 27.0786 109.944 27.1908L109.945 27.1908Z" fill="#231F20" style="fill:#231F20;fill:color(display-p3 0.1366 0.1220 0.1252);fill-opacity:1;"/>
</svg>
